<svg xmlns="http://www.w3.org/2000/svg" viewBox="0 0 200 280" width="200" height="280">
  <!-- Blue horizontal lines grid -->
  <g fill="none" stroke="#0047BB" stroke-width="4">
    <line x1="40" y1="20" x2="145" y2="20"/>
    <line x1="40" y1="30" x2="145" y2="30"/>
    <line x1="40" y1="40" x2="145" y2="40"/>
    <line x1="40" y1="50" x2="145" y2="50"/>
    <line x1="40" y1="60" x2="145" y2="60"/>
    <line x1="40" y1="70" x2="145" y2="70"/>
    <line x1="40" y1="80" x2="145" y2="80"/>
    <line x1="40" y1="90" x2="145" y2="90"/>
    <line x1="40" y1="100" x2="145" y2="100"/>
    <line x1="40" y1="110" x2="145" y2="110"/>
    <line x1="40" y1="120" x2="145" y2="120"/>
    <line x1="40" y1="130" x2="145" y2="130"/>
    <line x1="40" y1="140" x2="145" y2="140"/>
    <line x1="40" y1="150" x2="145" y2="150"/>
    <line x1="40" y1="160" x2="145" y2="160"/>
    <line x1="40" y1="170" x2="145" y2="170"/>
  </g>
  <!-- Red checkmark/tick -->
  <polyline points="55,140 85,175 160,30" fill="none" stroke="#E60012" stroke-width="18" stroke-linecap="round" stroke-linejoin="round"/>
  <!-- NAPIT text -->
  <text x="100" y="215" text-anchor="middle" font-family="Arial Black, Arial, sans-serif" font-weight="900" font-size="46" fill="#0047BB" letter-spacing="2">NAPIT</text>
  <!-- Red bar with "Electrical" -->
  <rect x="35" y="232" width="130" height="32" rx="2" fill="#E60012"/>
  <text x="100" y="254" text-anchor="middle" font-family="Arial, sans-serif" font-weight="700" font-size="18" fill="#FFFFFF">Electrical</text>
</svg>